inDegrees=no
num_controls=7
num_derivatives=13
num_iterations=134
num_multipliers=7
num_parameters=0
num_slacks=7
num_states=26
objective=5.275450
objective_accelerations=0.711731
objective_balance=0.021105
objective_effort=0.176105
objective_height=4.316393
objective_ligament=0.050116
solver_duration=1480.691025
status=Solve_Succeeded
success=true
DataType=double
version=3
OpenSimVersion=4.4-2022-07-23-0e9fedc
endheader
time	/jointset/ground_pelvis/pelvis_tilt/value	/jointset/ground_pelvis/pelvis_tx/value	/jointset/ground_pelvis/pelvis_ty/value	/jointset/hip_l/hip_flexion_l/value	/jointset/hip_l/hip_adduction_l/value	/jointset/hip_l/hip_rotation_l/value	/jointset/back/lumbar_extension/value	/jointset/patellofemoral_l/patellar_flexion_l/value	/jointset/knee_l/knee_flexion_l/value	/jointset/knee_l/knee_adduction_l/value	/jointset/knee_l/knee_rotation_l/value	/jointset/ankle_l/ankle_angle_l/value	/jointset/subtalar_l/subtalar_angle_l/value	/jointset/ground_pelvis/pelvis_tilt/speed	/jointset/ground_pelvis/pelvis_tx/speed	/jointset/ground_pelvis/pelvis_ty/speed	/jointset/hip_l/hip_flexion_l/speed	/jointset/hip_l/hip_adduction_l/speed	/jointset/hip_l/hip_rotation_l/speed	/jointset/back/lumbar_extension/speed	/jointset/patellofemoral_l/patellar_flexion_l/speed	/jointset/knee_l/knee_flexion_l/speed	/jointset/knee_l/knee_adduction_l/speed	/jointset/knee_l/knee_rotation_l/speed	/jointset/ankle_l/ankle_angle_l/speed	/jointset/subtalar_l/subtalar_angle_l/speed	/forceset/tau_hip_flexion_l	/forceset/tau_hip_adduction_l	/forceset/tau_hip_rotation_l	/forceset/tau_knee_flexion_l	/forceset/tau_ankle_angle_l	/forceset/tau_subtalar_angle_l	/forceset/tau_lumbar_extension	lambda_cid13_p0	lambda_cid13_p1	lambda_cid13_p2	lambda_cid13_p3	lambda_cid13_p4	lambda_cid13_p5	lambda_cid14_p0	/jointset/ground_pelvis/pelvis_tilt/accel	/jointset/ground_pelvis/pelvis_tx/accel	/jointset/ground_pelvis/pelvis_ty/accel	/jointset/hip_l/hip_flexion_l/accel	/jointset/hip_l/hip_adduction_l/accel	/jointset/hip_l/hip_rotation_l/accel	/jointset/back/lumbar_extension/accel	/jointset/patellofemoral_l/patellar_flexion_l/accel	/jointset/knee_l/knee_flexion_l/accel	/jointset/knee_l/knee_adduction_l/accel	/jointset/knee_l/knee_rotation_l/accel	/jointset/ankle_l/ankle_angle_l/accel	/jointset/subtalar_l/subtalar_angle_l/accel	gamma_cid13_p0	gamma_cid13_p1	gamma_cid13_p2	gamma_cid13_p3	gamma_cid13_p4	gamma_cid13_p5	gamma_cid14_p0
0.5	-0.2147596270980012	0.0373303555082482	0.7755242717245767	0.9719884504269712	-0.3650617922615477	-0.004258921605413933	-0.3998379287332275	0.9476294327992714	0.9476294327991435	-0.03869572878156284	-0.1745310612171599	0.317693935771601	0.1629887576224698	-0.743690381974091	-0.165413287318765	-0.5098320816122049	2.348964455678932	0.03905654511938662	0.5300832964554036	-0.3095881046141142	1.970628098010635	1.970628098010624	0.3098658844202359	-1.628891726192874e-05	0.530202274138476	0.2754249883135321	-0.1016082767725592	0.01978221633683488	-0.0002065703419513171	-0.1964077503004095	-0.008230132879904669	0.02333930656218327	0.1147764095972066	-26.0851351345688	-5.600460407781497	0.6478571931954962	-0.006683577954438406	-439.4072215983201	-74.27866522142295	-5.286587392216131	0.2632131934946973	0.3729450623971121	-0.4693928959375059	-1.109140725132392	0.1031980802759466	-0.7776275912278372	1.3840652575914	-1.537415424884266	-1.537415424884253	-0.1682906362973812	0.007139311111623864	-0.8493448706252147	0.107607260636233	-4.600662134784547e-07	-6.525743697894438e-07	6.279293743914473e-06	2.896442963110775e-07	-1.31075689725079e-06	-1.575683603217576e-06	-8.044428340795899e-07
0.51	-0.2221812873305846	0.03569517822513148	0.7704037731653628	0.9954176238970348	-0.3646688086616433	0.001008599695326388	-0.4028654715088288	0.9672551016765671	0.9672551016765956	-0.03561514307917683	-0.1745310663427777	0.322951791614712	0.1657436967930659	-0.7405379437936017	-0.1615998751677555	-0.5141490310090351	2.336546875820781	0.03953394710818818	0.5233810946786017	-0.2958922406832528	1.954221923639642	1.954221923639634	0.3062328032300295	4.599435048952078e-08	0.5212926506754213	0.2755087082987153	-0.1062546100522948	0.02082080546128893	-0.0008335912711929594	-0.1986114862012557	-0.009957588323097337	0.0238569583949857	0.1183240146620756	-26.77611371007682	-5.637149369699098	0.5770126620982984	0.130845234037816	-442.647067005695	-74.40083358233304	-4.64272633504034	0.356791356361663	0.3889461670284828	-0.3953126037877671	-1.356622797803937	0.0181437355140784	-0.6232665153642022	1.366578434255004	-1.734623876334254	-1.734623876333719	-0.4635750138265612	-0.002235573767331313	-0.9232336674331676	-0.05004033386128452	-4.369392925441493e-07	-2.592430684568244e-07	6.228755952758378e-06	3.364807869432996e-07	-1.254668640764774e-06	-1.17691049337846e-06	-7.738580330444118e-07
0.52	-0.2295683167361551	0.03409881643864	0.7652436117837341	1.018712910332188	-0.3642714245463847	0.006207748969408994	-0.405755209350437	0.9867082277235266	0.986708227723712	-0.03257143981938972	-0.1745311313502693	0.3281182587065349	0.1684977142232497	-0.7367642165716907	-0.1576501879937176	-0.5177646460951449	2.322187048696734	0.03993664819025947	0.5164088911234873	-0.2820271178155327	1.936119531943553	1.936119531943549	0.3024893959020528	-2.826529217230071e-05	0.5119245238808642	0.2752406402310738	-0.1109009433320273	0.02185939458575772	-0.001460612200477504	-0.2008152221020993	-0.01168504376628522	0.02437461022781148	0.1218716197269454	-27.46115914867338	-5.683365690998026	0.5173861158588623	0.2241460744676689	-445.8056671888554	-74.63470814581615	-4.047062400223012	0.387471001779063	0.4002000670027898	-0.3291260337934384	-1.497590178311342	0.08825789892989336	-0.8316279468903232	1.417917044963157	-1.876658889903432	-1.876658889903432	-0.1903558638514669	-0.001789928515410447	-0.9410455369256951	0.03724965007131772	-4.135007594814329e-07	1.303250791467184e-07	6.183131745557714e-06	3.823554194809926e-07	-1.198180669397188e-06	-7.758771273778835e-07	-7.448996039639202e-07
0.53	-0.2369146818940408	0.03254258590351237	0.7600508240876879	1.041855262282954	-0.3638701068079592	0.01133654583197664	-0.4085054440366075	1.005972179851953	1.005972179852044	-0.02956580586413125	-0.1745311541891111	0.3331889732594552	0.1712476572115799	-0.7324079836096858	-0.1535772973679498	-0.5206698483662033	2.305965560392505	0.04032233272001099	0.5093050162842634	-0.2680068120890129	1.916400203280776	1.916400203280764	0.2986266658987918	6.266994957621213e-06	0.5021529899284011	0.2746967109468665	-0.1154868722008778	0.02268691733923701	-0.001955316364008663	-0.2033261261851042	-0.01322064576588133	0.02471035053795232	0.1253480002471744	-28.1146557811554	-5.634066063585412	0.4173584170295404	0.3409949331512713	-449.1375996274349	-74.76983622906276	-3.498714053458377	0.4748058987872099	0.4137081001983947	-0.2529943136184633	-1.732138778872657	0.01207077916309645	-0.6572810313806519	1.396038435923866	-2.060027485793842	-2.060027485794989	-0.48576184970922	0.00464318777237476	-1.005009648953566	-0.1086891667683052	-3.891393175341865e-07	4.924558278933276e-07	6.112908161785229e-06	4.229904840131821e-07	-1.138415292824111e-06	-3.85823983753705e-07	-7.156579306239959e-07
0.54	-0.2442144634312305	0.03102765918260936	0.7548326289709597	1.064825857226199	-0.3634652628144031	0.01639280119036505	-0.4111150854456274	1.025030847167486	1.025030847167483	-0.02659910526514199	-0.1745311180289952	0.3381600120079415	0.1739904659172478	-0.727447492432643	-0.1493894251487934	-0.5228461302315204	2.287835647192512	0.04064189921637286	0.5019005902873511	-0.2539084623853952	1.895062569364837	1.895062569364817	0.2947027246496999	-1.646550010532434e-05	0.4919893629940603	0.2738137836985972	-0.1200728010697289	0.02351444009272735	-0.002450020527594204	-0.205837030268108	-0.01475624776547366	0.02504609084811137	0.1288243807674013	-28.76383359486267	-5.592664773617482	0.326751193365891	0.416650374582381	-452.4059431310043	-75.01031874429326	-2.996558735994193	0.5083226447866774	0.423196385680471	-0.1833419526451475	-1.8792751574644	0.07503429225196098	-0.8917381784279926	1.433525840382775	-2.200319940536043	-2.200319940536035	-0.2025981130176585	-0.01324288495398282	-1.019464133301217	-0.03054994274111611	-3.637567849061834e-07	8.242303055641805e-07	6.015468246486474e-06	4.578285796882187e-07	-1.075023850917299e-06	-7.91917126937145e-09	-6.861028806566139e-07
0.55	-0.2514619242056729	0.02955517648248431	0.7495963274553648	1.087606025216063	-0.3630572657371875	0.02137409235911534	-0.4135832830444106	1.043868336636173	1.043868336635993	-0.02367196364239518	-0.1745310852190172	0.3430277081944065	0.1767231629351154	-0.7219571764048396	-0.1450882490584027	-0.5242873838917896	2.267888017116802	0.04095237140772874	0.4943118099509729	-0.2397296498497484	1.872173991560075	1.872173991560072	0.2907136560171783	6.962001306379138e-06	0.481498982016046	0.2726764046455803	-0.1244249511744409	0.02385108374433011	-0.002790969055155612	-0.2089028630458741	-0.01575285314014575	0.0253603957223428	0.1321186007834801	-29.25059257798868	-5.553209851522373	0.2168244319681983	0.3821697108030972	-455.8057737936555	-75.38425463871089	-2.539210094843334	0.5824975767174999	0.4365034596412382	-0.10570681270326	-2.099032291180394	0.007308686491046507	-0.6999370749829447	1.410270088373529	-2.372192625930209	-2.372192625927664	-0.4987212811674708	0.008904125180309063	-1.071422619598224	-0.1635851002877027	-3.37222648269452e-07	1.059341411670377e-06	5.826850320295566e-06	4.759597076508119e-07	-1.003454106901079e-06	3.110584713654937e-07	-6.530168784021353e-07
0.5600000000000001	-0.2586518595208488	0.02812629059104776	0.74434937545517	1.110177411833459	-0.362646512937276	0.02627799790175711	-0.4159096502921938	1.062469127141715	1.062469127141358	-0.02078504471454794	-0.1745310644225251	0.3477889810631822	0.1794428355197117	-0.7159424005794265	-0.1406700634110943	-0.5249762271514801	2.246079372698846	0.04119304375562607	0.4864234650649885	-0.2255423921853867	1.847722776735955	1.84772277673597	0.2866581856727367	-1.886819761970759e-05	0.4707046994561641	0.2712088970443352	-0.1287771012791523	0.02418772739595364	-0.003131917582852024	-0.211968695823639	-0.01674945851481088	0.02567470059660951	0.1354128207995572	-29.73428562451221	-5.520710505479046	0.1153415204586958	0.3072147251860639	-459.1636861172501	-75.85838846415133	-2.12525954633758	0.6132146043085659	0.4465982970640271	-0.03285987252940351	-2.25147802591368	0.06107432356023941	-0.9516510883492082	1.435214866125782	-2.512847344407562	-2.512847344407549	-0.2158784554016638	-0.02309442502154534	-1.08024444967473	-0.09657565238674486	-3.093065868222467e-07	1.17845647189899e-06	5.528818781034078e-06	4.740424743584737e-07	-9.220704003535723e-07	5.593235101809991e-07	-6.156937334031409e-07
0.5700000000000001	-0.2657789623391081	0.02674194957018616	0.7390992614753795	1.13252183054737	-0.3622334162997249	0.03110183772244064	-0.4180942171825371	1.080818012125055	1.080818012124973	-0.01793880864423525	-0.1745312705096939	0.3524407942078351	0.1821465004676401	-0.7093765169478096	-0.136200835411598	-0.5249224556367459	2.22251763304883	0.04141879244983843	0.4783564177510406	-0.211388632203096	1.821818284993759	1.821818284993774	0.2825272819856289	-1.807844973300326e-05	0.4595934196247848	0.2694602740499479	-0.1335387582132254	0.02536418077068435	-0.003350301178230041	-0.2141900017004078	-0.01893880579541811	0.02538933262711263	0.1388827820057609	-30.67246074592306	-5.120044528367588	-0.07699664138298584	0.779502041130144	-462.4733805614769	-75.50136990236894	-1.753082934993441	0.6935149357652453	0.44677544544581	0.04293743192473588	-2.451560709558625	0.001315628630625064	-0.7329666832210044	1.402809616302237	-2.664521413554895	-2.66452141355482	-0.5208289896239729	0.01338774308517657	-1.136200207483171	-0.2244157533030358	-2.598981010475995e-07	9.695558619602782e-07	4.700678611528047e-06	3.953270589456363e-07	-7.736575962550277e-07	5.595666207926112e-07	-5.331380209089363e-07
0.58	-0.2728373583824155	0.02540223890813021	0.7338533735644263	1.15462202410978	-0.3618184640779764	0.03584526004392647	-0.4201377758626532	1.098900797926088	1.09890079792628	-0.01513570814365731	-0.1745311242857034	0.3569795684626514	0.1848305971595569	-0.7022010455891167	-0.1317439916499634	-0.5241310133840184	2.197234342398288	0.04156416059520342	0.4703399652249579	-0.1973407501399459	1.794502940274394	1.794502940274409	0.2780310717281779	5.159403380926167e-05	0.4480969214888604	0.2672952458420291	-0.1383004151473	0.0265406341454292	-0.003568684773758135	-0.2164113075771776	-0.02112815307602031	0.02510396465764137	0.1423527432119621	-31.610961855603	-4.722599902920927	-0.2650739791415292	1.225629920907847	-465.7573361388979	-75.22935119745148	-1.420979996392946	0.7351321497237194	0.4441214494917083	0.1146742750693091	-2.595788226018956	0.04499821379075673	-0.9415321307761707	1.414039282297675	-2.795017939841261	-2.795017939841292	-0.2889397694702928	-0.009317877890431054	-1.157288110583747	-0.1798566950930051	-1.824994812651231e-07	3.334720536641425e-07	3.18216441193614e-06	2.165954063526192e-07	-5.379510837179276e-07	2.368044295573066e-07	-3.916747786535313e-07
0.59	-0.2798214406821299	0.02410713533315548	0.7286190953427865	1.176461159819783	-0.3614017685306048	0.04050466693585548	-0.4220412246862077	1.116703549559339	1.116703549559315	-0.01237484300413979	-0.1745311581250327	0.3614019652488389	0.1874922060122858	-0.6945371017217508	-0.1272665775372481	-0.5225967154075588	2.170300590908217	0.04175775728590229	0.461597083329375	-0.1833790828717526	1.765813853149738	1.765813853149752	0.2740273147257009	-3.154184229498993e-05	0.4363460937496608	0.2649585380912556	-0.1424422296448941	0.02654573354536399	-0.003624997511629517	-0.2197766324829944	-0.02193135089494666	0.02519132212002889	0.145407367385089	-32.06479344726072	-4.572334423860874	-0.4132403190539102	1.20233691874299	-469.1096511969967	-75.67511125934097	-1.127434553219528	0.793763290974774	0.4510956401256185	0.1919149173140459	-2.78601743749705	0.003619814661058303	-0.8325903026475889	1.382720203958026	-2.940822323222695	-2.940822323222909	-0.4733251025828349	-0.003345148973173106	-1.189439878311446	-0.2710436005785761	-1.14037997643502e-07	-3.143987609947092e-07	1.755147765964604e-06	4.232600535379768e-08	-3.249722736848733e-07	-1.545031733737871e-07	-2.595799133563422e-07
